<svg width="12" height="20" viewBox="0 0 12 20" fill="none" xmlns="http://www.w3.org/2000/svg">
<g transform="translate(0 20) rotate(-90)">
<path d="M13.293 0.292893C13.6835 -0.0976311 14.3165 -0.0976311 14.707 0.292893L19.707 5.29289C20.0975 5.68342 20.0975 6.31644 19.707 6.70696L14.707 11.707C14.3165 12.0974 13.6835 12.0974 13.293 11.707C12.9025 11.3164 12.9025 10.6834 13.293 10.2929L16.5859 6.99992H1C0.447733 6.99992 2.80885e-05 6.55219 0 5.99992C0 5.44764 0.447715 4.99992 1 4.99992H16.5859L13.293 1.70696C12.9025 1.31644 12.9025 0.68342 13.293 0.292893Z" fill="black"/>
</g>
</svg>
