<svg width="20" height="20" viewBox="0 0 20 20" fill="none" xmlns="http://www.w3.org/2000/svg">
<path d="M18 10C18 5.58172 14.4183 2 10 2C5.58172 2 2 5.58172 2 10C2 11.4551 2.38759 12.8166 3.06445 13.9902L3.06738 13.9951C3.09917 14.0502 3.17671 14.175 3.23828 14.3242L3.29199 14.4805L3.32227 14.6104C3.34563 14.738 3.35007 14.8611 3.3418 14.9824C3.32677 15.2022 3.25199 15.4071 3.22363 15.4922L2.58008 17.418L4.50781 16.7764C4.58624 16.7502 4.7964 16.6724 5.01758 16.6572L5.14648 16.6533C5.23131 16.6547 5.3142 16.664 5.39648 16.6797L5.51953 16.708L5.67578 16.7617C5.82505 16.8233 5.94925 16.9015 6.00488 16.9336L6.00977 16.9355C7.18333 17.6123 8.54503 18 10 18C14.4182 17.9998 18 14.4181 18 10ZM20 10C20 15.5228 15.5226 19.9998 10 20C8.20733 20 6.52234 19.5263 5.06543 18.6982L2.8457 19.4375C2.83968 19.4396 2.83419 19.4433 2.82812 19.4453C2.60485 19.5197 2.37137 19.5984 2.1748 19.6445C1.99244 19.6873 1.65182 19.7531 1.28711 19.623C0.864104 19.4722 0.529541 19.1381 0.37793 18.7129C0.247766 18.3477 0.313597 18.0067 0.356445 17.8242C0.401873 17.6309 0.479206 17.4021 0.552734 17.1816H0.551758L0.552734 17.1787L0.556641 17.166L1.50586 17.4824L0.557617 17.166L1.30078 14.9336C0.473038 13.4769 0 11.7923 0 10C0 4.47715 4.47715 0 10 0C15.5228 0 20 4.47715 20 10Z" fill="#656565"/>
</svg>
