<svg width="20" height="20" viewBox="0 0 20 20" fill="none" xmlns="http://www.w3.org/2000/svg">
<path d="M12 10.1973C12 9.62181 11.9997 9.24975 11.9766 8.9668C11.9544 8.69595 11.9167 8.59521 11.8916 8.5459C11.7961 8.35841 11.6427 8.20555 11.4541 8.10938C11.4046 8.08417 11.3037 8.04661 11.0322 8.02442C10.749 8.00127 10.3764 8 9.79981 8H4.2002C3.62366 8 3.25124 8.00127 2.96778 8.02442C2.69598 8.04662 2.59528 8.08422 2.5459 8.10938C2.35779 8.20524 2.20524 8.35779 2.10938 8.5459C2.08422 8.59528 2.04662 8.69598 2.02442 8.96778C2.00127 9.25124 2 9.62366 2 10.2002V15.7998C2 16.3764 2.00127 16.749 2.02442 17.0322C2.04661 17.3037 2.08417 17.4046 2.10938 17.4541C2.20555 17.6427 2.3584 17.7961 2.5459 17.8916C2.59521 17.9167 2.69595 17.9544 2.9668 17.9766C3.24974 17.9997 3.62182 18 4.19727 18H9.80372C10.3791 18 10.7505 17.9997 11.0332 17.9766C11.3042 17.9544 11.4048 17.9167 11.4541 17.8916C11.642 17.7959 11.7956 17.6416 11.8916 17.4531C11.9167 17.4037 11.9545 17.303 11.9766 17.0332C11.9997 16.7504 12 16.3782 12 15.8027V10.1973ZM14 12H15.8027C16.3782 12 16.7504 11.9997 17.0332 11.9766C17.303 11.9545 17.4037 11.9167 17.4531 11.8916C17.6415 11.7956 17.7958 11.642 17.8916 11.4541C17.9168 11.4047 17.9544 11.3037 17.9766 11.0322C17.9997 10.7489 18 10.3764 18 9.79981V4.2002C18 3.62377 17.9997 3.25109 17.9766 2.96778C17.9544 2.69656 17.9168 2.59543 17.8916 2.5459C17.7961 2.35841 17.6427 2.20555 17.4541 2.10938C17.4046 2.08417 17.3037 2.04661 17.0322 2.02442C16.749 2.00127 16.3764 2 15.7998 2H10.2002C9.62366 2 9.25124 2.00127 8.96778 2.02442C8.69598 2.04662 8.59528 2.08422 8.5459 2.10938C8.35779 2.20524 8.20524 2.35779 8.10938 2.5459C8.08422 2.59528 8.04662 2.69598 8.02442 2.96778C8.00127 3.25124 8 3.62366 8 4.2002V6H9.79981C10.3434 6 10.8117 5.99893 11.1953 6.03028C11.5906 6.06259 11.984 6.13441 12.3623 6.32715C12.926 6.61446 13.385 7.0729 13.6729 7.6377C13.8655 8.01581 13.9375 8.40888 13.9697 8.80372C14.0011 9.18701 14 9.65479 14 10.1973V12ZM20 9.79981C20 10.3434 20.0011 10.8116 19.9697 11.1953C19.9374 11.5904 19.8655 11.9832 19.6729 12.3613C19.3851 12.926 18.9256 13.3853 18.3613 13.6729C17.9832 13.8655 17.5902 13.9374 17.1953 13.9697C16.8122 14.001 16.345 14 15.8027 14H14V15.8027C14 16.345 14.001 16.8122 13.9697 17.1953C13.9374 17.5902 13.8655 17.9832 13.6729 18.3613C13.3855 18.9253 12.9269 19.3851 12.3623 19.6729C11.9843 19.8655 11.5911 19.9374 11.1963 19.9697C10.8132 20.0011 10.3461 20 9.80372 20H4.19727C3.6548 20 3.187 20.0011 2.80372 19.9697C2.40889 19.9375 2.01581 19.8655 1.6377 19.6729C1.0729 19.385 0.61446 18.926 0.327153 18.3623C0.134411 17.984 0.062592 17.5906 0.0302779 17.1953C-0.00107107 16.8117 4.43415e-06 16.3434 4.43415e-06 15.7998V10.2002C4.43415e-06 9.65664 -0.00106666 9.18845 0.0302779 8.80469C0.062581 8.40942 0.134373 8.01605 0.327153 7.6377C0.614751 7.07334 1.07334 6.61475 1.6377 6.32715C2.01605 6.13437 2.40941 6.06258 2.80469 6.03028C3.18845 5.99893 3.65664 6 4.2002 6H6V4.2002C6 3.65664 5.99893 3.18845 6.03028 2.80469C6.06258 2.40942 6.13437 2.01605 6.32715 1.6377C6.61475 1.07334 7.07334 0.614752 7.6377 0.327153C8.01605 0.134373 8.40942 0.062581 8.80469 0.0302779C9.18845 -0.00106666 9.65664 4.43484e-06 10.2002 4.43484e-06H15.7998C16.3434 4.43484e-06 16.8117 -0.00107113 17.1953 0.0302779C17.5906 0.0625921 17.984 0.134411 18.3623 0.327153C18.926 0.614457 19.385 1.0729 19.6729 1.6377C19.8656 2.01606 19.9374 2.40937 19.9697 2.80469C20.0011 3.18836 20 3.65665 20 4.2002V9.79981Z" fill="black"/>
</svg>
