<svg width="20" height="16" viewBox="0 0 20 16" fill="none" xmlns="http://www.w3.org/2000/svg">
<path d="M18 4.19727C18 3.79684 17.9983 3.49478 17.9902 3.25293C16.9849 3.99886 15.7656 4.91748 14.7305 5.70411C14.1049 6.17954 13.5474 6.60561 13.1465 6.91211C12.946 7.06536 12.784 7.18828 12.6729 7.27344C12.6173 7.31597 12.575 7.34977 12.5459 7.37207C12.5313 7.38324 12.5201 7.39177 12.5127 7.39747C12.509 7.40027 12.5058 7.40191 12.5039 7.40332L12.502 7.40528C12.4962 7.40966 12.4902 7.41469 12.4844 7.41895C11.8751 7.86572 11.3541 8.26881 10.751 8.42481C10.2584 8.55212 9.74059 8.5522 9.24805 8.42481C8.64538 8.26888 8.12668 7.86588 7.51856 7.41993C7.51388 7.4165 7.5095 7.41269 7.50489 7.40918V7.41016L2.00879 3.25879C2.0009 3.50036 2 3.80144 2 4.2002V11.7998C2 12.3764 2.00127 12.749 2.02442 13.0322C2.04661 13.3037 2.08417 13.4046 2.10938 13.4541C2.20555 13.6427 2.35841 13.7961 2.5459 13.8916C2.59521 13.9167 2.69595 13.9544 2.9668 13.9766C3.24974 13.9997 3.62182 14 4.19727 14H15.8027C16.3779 14 16.7496 13.9996 17.0322 13.9766C17.3025 13.9545 17.4037 13.9167 17.4531 13.8916C17.6418 13.7955 17.796 13.6417 17.8916 13.4541C17.9167 13.4048 17.9544 13.3042 17.9766 13.0332C17.9997 12.7505 18 12.3791 18 11.8037V4.19727ZM3.66114 2.00196L8.70118 5.80762L9.16114 6.14063C9.52773 6.40031 9.64373 6.46103 9.74903 6.48829C9.91326 6.53076 10.0867 6.53076 10.251 6.48829C10.3917 6.45181 10.552 6.35476 11.3008 5.80567C11.3079 5.80022 11.3178 5.79289 11.3291 5.78418C11.3584 5.76172 11.4016 5.72898 11.457 5.68653C11.5687 5.60101 11.7306 5.47692 11.9316 5.32325C12.3336 5.01594 12.8922 4.58908 13.5195 4.11231C14.397 3.44543 15.4134 2.67971 16.3213 2.00196C16.1682 2.00093 15.9956 2 15.7998 2H4.2002C3.99678 2 3.81879 2.00082 3.66114 2.00196ZM20 11.8037C20 12.3461 20.0011 12.8132 19.9697 13.1963C19.9374 13.5911 19.8655 13.9843 19.6729 14.3623C19.385 14.927 18.9251 15.3856 18.3613 15.6729C17.9833 15.8655 17.5902 15.9374 17.1953 15.9697C16.8123 16.001 16.345 16 15.8027 16H4.19727C3.6548 16 3.187 16.0011 2.80372 15.9697C2.40889 15.9375 2.01581 15.8655 1.6377 15.6729C1.0729 15.385 0.614457 14.926 0.327153 14.3623C0.134412 13.984 0.0625921 13.5906 0.0302779 13.1953C-0.00107113 12.8117 4.43484e-06 12.3434 4.43484e-06 11.7998V4.2002C4.43484e-06 3.65664 -0.00106666 3.18845 0.0302779 2.80469C0.062581 2.40942 0.134373 2.01605 0.327153 1.6377C0.614751 1.07334 1.07334 0.614752 1.6377 0.327153C2.01605 0.134373 2.40942 0.0625811 2.80469 0.0302779C3.18845 -0.00106663 3.65664 4.47081e-06 4.2002 4.47081e-06H15.7998C16.3433 4.47081e-06 16.8118 -0.00107419 17.1953 0.0302779C17.5905 0.0626099 17.9832 0.134481 18.3613 0.327153C18.9246 0.614181 19.3847 1.07225 19.6729 1.6377C19.8655 2.01582 19.9375 2.40889 19.9697 2.80372C20.0011 3.187 20 3.6548 20 4.19727V11.8037Z" fill="black"/>
</svg>
