<svg width="19" height="20" viewBox="0 0 19 20" fill="none" xmlns="http://www.w3.org/2000/svg">
<path d="M17.6446 7.89952C17.8844 8.05326 18.1794 8.27028 18.381 8.60052L18.4617 8.7497L18.5435 8.95205C18.6858 9.36396 18.6903 9.81145 18.5548 10.226L18.475 10.4297L18.3975 10.5795C18.2013 10.9132 17.9106 11.1358 17.6735 11.2934C17.3934 11.4795 17.0209 11.6791 16.6075 11.9023L4.36784 18.5134C3.83699 18.8001 3.3796 19.048 3.00976 19.2076C2.67364 19.3527 2.1842 19.5327 1.6663 19.4177C1.0362 19.2777 0.510781 18.8419 0.258168 18.2451C0.0515463 17.7567 0.14013 17.2434 0.222002 16.8864C0.312136 16.4934 0.473171 15.9981 0.659383 15.4236L2.44558 9.91259C2.47796 9.81267 2.49387 9.76261 2.50411 9.72635L2.50476 9.72151C2.49435 9.68712 2.47826 9.6401 2.44598 9.5459L0.564766 4.05228C0.369055 3.48104 0.199083 2.98894 0.102418 2.59767C0.0145732 2.2421 -0.0819571 1.72972 0.116654 1.23785C0.358971 0.638189 0.8761 0.193411 1.5044 0.0426837C2.02007 -0.0809208 2.51244 0.0895094 2.85116 0.228977C3.22387 0.382454 3.68593 0.623806 4.22199 0.901914L16.5686 7.307C16.9861 7.52361 17.3612 7.71787 17.6446 7.89952ZM16.5654 9.5831C16.3777 9.46273 16.0996 9.31733 15.647 9.08249L3.30036 2.67741C2.72956 2.38128 2.36118 2.19022 2.08967 2.07841C2.06858 2.06973 2.04871 2.06302 2.03078 2.05611C2.03498 2.07494 2.03823 2.0959 2.04373 2.11816C2.11417 2.40325 2.24793 2.79638 2.45634 3.40469L4.27313 8.70755L10.5153 8.65561C11.0673 8.65135 11.5189 9.09513 11.5235 9.64715C11.5281 10.1994 11.0836 10.6514 10.5313 10.656L4.29045 10.7066L2.56217 16.0403C2.36392 16.652 2.23669 17.0472 2.17102 17.3335C2.16613 17.3549 2.16284 17.3748 2.15909 17.393C2.17653 17.386 2.19649 17.3806 2.21692 17.3718C2.48645 17.2555 2.85137 17.0589 3.4168 16.7535L15.6558 10.1431L15.6613 10.1403C16.1072 9.89946 16.3807 9.7503 16.5658 9.62729C16.5769 9.61994 16.5858 9.61082 16.5953 9.60426C16.5859 9.59796 16.5764 9.59015 16.5654 9.5831Z" fill="#656565"/>
</svg>
